<svg xmlns="http://www.w3.org/2000/svg" viewBox="0 0 512 512" width="512" height="512">
  <rect width="512" height="512" rx="112" fill="#16a34a"/>
  <path fill="#ffffff" d="M256 120c-79.5 0-144 60.4-144 135 0 27.5 8.8 53 23.9 74.3L116 392l65.7-19.4C204.6 384.7 229.5 390 256 390c79.5 0 144-60.4 144-135S335.5 120 256 120zm0 36c59.6 0 108 44.4 108 99s-48.4 99-108 99c-23 0-44.3-6.6-61.9-17.9l-8.7-5.6-38 11.2 11.4-36-6-8.9C193.2 296.9 184 277 184 255c0-54.6 48.4-99 72-99z"/>
  <path fill="#ffffff" d="M312 286c-4-2-23-11-26-12s-6-2-9 2-10 12-12 15-4 3-8 1c-23-11-38-20-53-46-4-7 4-6 11-21 1-3 1-5 0-7s-9-22-13-30c-3-8-6-7-9-7h-7c-2 0-6 1-10 5-3 4-13 13-13 31s14 36 16 39c2 3 27 42 66 58 37 16 37 11 44 10 7 0 22-9 25-18 3-8 3-16 2-18-1-1-3-2-7-4z"/>
</svg>
